<?xml version="1.0" encoding="UTF-8" standalone="no"?>
<svg
   version="1.0"
   width="638.000000pt"
   height="638.000000pt"
   viewBox="0 0 638.000000 638.000000"
   preserveAspectRatio="xMidYMid meet"
   id="svg6"
   sodipodi:docname="jgo-logo.svg"
   inkscape:version="1.4.3 (fcd0343856, 2026-01-01)"
   xmlns:inkscape="http://www.inkscape.org/namespaces/inkscape"
   xmlns:sodipodi="http://sodipodi.sourceforge.net/DTD/sodipodi-0.dtd"
   xmlns="http://www.w3.org/2000/svg"
   xmlns:svg="http://www.w3.org/2000/svg">
  <defs
     id="defs6" />
  <sodipodi:namedview
     id="namedview6"
     pagecolor="#ffffff"
     bordercolor="#f0f0f0"
     borderopacity="1.0"
     inkscape:showpageshadow="2"
     inkscape:pageopacity="0.0"
     inkscape:pagecheckerboard="0"
     inkscape:deskcolor="#d1d1d1"
     inkscape:document-units="pt"
     inkscape:zoom="0.53840125"
     inkscape:cx="425.33333"
     inkscape:cy="425.33333"
     inkscape:window-width="1720"
     inkscape:window-height="659"
     inkscape:window-x="0"
     inkscape:window-y="24"
     inkscape:window-maximized="1"
     inkscape:current-layer="svg6" />
  <metadata
     id="metadata1">
Created by potrace 1.16, written by Peter Selinger 2001-2019
</metadata>
  <g
     transform="matrix(0.1,0,0,-0.1,0,638)"
     fill="#000000"
     stroke="none"
     id="g6"
     style="display:inline">
    <path
       d="m 4650,5431 c 0,-4 -20,-6 -45,-6 -25,1 -45,-3 -45,-8 0,-4 -4,-5 -10,-2 -5,3 -10,2 -10,-3 0,-6 -6,-10 -12,-9 -38,1 -69,-4 -64,-11 2,-4 -5,-9 -17,-9 -25,-2 -44,-6 -69,-17 -9,-4 -22,-9 -30,-11 -37,-9 -58,-18 -58,-26 0,-5 -9,-9 -20,-9 -11,0 -20,-5 -20,-11 0,-5 -4,-8 -8,-5 -5,3 -20,-6 -35,-20 -15,-14 -27,-22 -27,-19 0,6 -13,-4 -45,-33 -8,-7 -15,-10 -15,-5 0,4 -7,-3 -16,-15 -8,-12 -19,-20 -23,-18 -4,3 -14,-4 -22,-16 -8,-11 -25,-33 -39,-48 -14,-15 -32,-38 -40,-50 -8,-12 -22,-32 -31,-44 -17,-21 -68,-120 -71,-133 0,-5 -6,-21 -12,-38 -5,-16 -9,-33 -8,-37 1,-5 -2,-8 -6,-8 -5,0 -9,-6 -10,-12 0,-7 -3,-24 -7,-38 -6,-22 -17,-171 -16,-225 0,-46 16,-148 25,-163 3,-5 8,-23 11,-41 3,-18 19,-62 35,-97 16,-35 26,-64 24,-64 -3,0 4,-14 16,-30 12,-17 23,-36 24,-43 1,-7 13,-30 27,-52 14,-22 44,-74 66,-115 140,-259 162,-313 139,-327 -6,-4 -240,-8 -520,-8 -409,0 -511,2 -520,13 -6,7 -16,19 -23,26 -7,8 -9,16 -6,20 4,3 2,6 -4,6 -6,0 -16,14 -23,30 -7,17 -17,30 -22,30 -5,0 -7,4 -3,9 3,5 -1,16 -9,24 -8,8 -13,17 -10,20 3,3 -2,16 -11,30 -15,23 -25,56 -27,85 -1,6 -6,12 -11,12 -6,0 -7,3 -4,6 3,4 2,15 -4,26 -6,11 -12,28 -15,39 -2,10 -7,29 -10,42 -3,12 -6,28 -6,35 -1,6 -5,12 -10,12 -4,0 -7,3 -7,8 3,16 -14,72 -22,72 -4,0 -6,9 -4,20 2,11 -1,20 -6,20 -6,0 -8,3 -5,8 2,4 -3,23 -11,42 -9,19 -15,38 -15,43 1,4 -2,7 -8,7 -6,0 -9,3 -8,8 3,12 -13,52 -21,52 -4,0 -8,6 -8,13 0,13 -48,91 -70,115 -7,7 -13,20 -13,28 0,8 -4,12 -10,9 -5,-3 -10,1 -10,9 0,8 -22,38 -50,66 -27,28 -50,48 -50,45 0,-4 -7,1 -16,9 -22,23 -104,78 -104,71 0,-4 -7,1 -16,9 -8,9 -20,14 -25,11 -5,-4 -9,-2 -9,2 0,8 -66,37 -80,36 -3,-1 -13,3 -23,9 -10,5 -27,11 -38,14 -10,2 -29,7 -42,10 -55,14 -340,26 -362,15 -5,-3 -21,-6 -35,-7 -14,-1 -38,-5 -55,-9 -16,-4 -36,-8 -42,-8 -7,0 -13,-3 -13,-7 0,-4 -6,-7 -12,-8 -31,-2 -50,-9 -68,-25 -11,-9 -20,-14 -20,-11 0,2 -13,-8 -28,-23 -16,-15 -27,-31 -25,-35 2,-5 0,-8 -5,-8 -5,0 -9,-7 -9,-15 0,-8 5,-15 10,-15 6,0 8,-3 4,-6 -3,-3 6,-18 21,-33 14,-14 27,-24 27,-21 1,3 9,-3 19,-13 10,-9 22,-15 27,-12 5,4 9,2 9,-3 0,-5 6,-9 13,-9 17,-1 102,-20 102,-23 0,-2 16,-6 50,-14 11,-2 20,-5 20,-6 0,-1 8,-3 18,-6 9,-2 25,-6 35,-8 9,-3 17,-5 17,-6 0,-2 38,-11 53,-12 6,-1 12,-5 12,-10 0,-5 4,-7 9,-3 5,3 17,-3 27,-12 10,-10 20,-17 23,-16 11,5 41,-9 41,-18 0,-6 4,-8 9,-5 5,3 31,-15 57,-42 26,-26 51,-47 54,-47 3,0 4,-3 2,-7 -1,-5 3,-8 9,-8 5,0 7,-4 4,-10 -3,-5 -2,-10 4,-10 11,0 68,-111 76,-147 3,-13 7,-32 10,-43 3,-11 7,-29 10,-40 14,-54 16,-68 21,-110 3,-25 7,-54 8,-65 1,-11 6,-31 10,-44 5,-14 10,-38 12,-55 2,-17 6,-47 9,-66 3,-19 8,-57 11,-85 5,-56 16,-50 -103,-57 -24,-1 -43,-5 -43,-9 0,-3 -16,-5 -35,-4 -19,2 -37,-1 -40,-6 -3,-4 -14,-6 -25,-4 -11,2 -20,1 -20,-4 0,-4 -11,-8 -25,-9 -46,-3 -55,-5 -55,-12 0,-4 -6,-7 -12,-7 -21,-1 -43,-7 -48,-15 -3,-3 -12,-8 -20,-10 -17,-4 -70,-55 -70,-68 0,-6 -4,-10 -8,-10 -12,0 -6,-220 6,-251 6,-15 9,-29 7,-31 -3,-2 -6,-19 -7,-37 -3,-37 -18,-48 -65,-46 -18,1 -33,-2 -33,-6 0,-3 -8,-6 -17,-6 -50,0 -74,-4 -69,-11 2,-4 -3,-8 -12,-9 -30,-2 -50,-9 -64,-21 -8,-6 -18,-9 -21,-5 -4,3 -7,1 -7,-5 0,-7 -6,-12 -14,-12 -8,0 -17,-7 -20,-16 -4,-9 -9,-14 -12,-11 -4,3 -27,-16 -53,-43 -64,-68 -71,-77 -64,-84 4,-3 1,-6 -6,-6 -7,0 -9,-4 -6,-10 3,-5 2,-10 -4,-10 -8,0 -20,-23 -27,-52 -1,-5 -3,-11 -4,-15 -1,-5 -2,-11 -1,-15 0,-5 -3,-8 -7,-8 -11,0 -12,-5 -15,-132 -2,-60 0,-108 3,-108 4,0 6,-16 5,-35 -1,-20 2,-38 7,-41 4,-3 6,-10 3,-15 -4,-5 -2,-9 3,-9 5,0 9,-7 10,-15 1,-8 3,-22 4,-30 1,-8 5,-15 10,-15 5,0 7,-4 4,-9 -3,-5 1,-14 9,-21 7,-6 11,-19 8,-28 -3,-9 -3,-14 2,-10 4,4 25,-20 46,-52 21,-33 43,-60 49,-60 6,0 9,-3 7,-7 -5,-10 120,-132 127,-125 3,3 8,-3 12,-12 3,-9 10,-13 15,-10 5,3 12,-2 15,-10 3,-9 10,-14 14,-11 5,3 13,-3 19,-12 5,-10 12,-17 15,-15 4,1 33,-11 66,-28 33,-17 60,-28 60,-25 0,3 10,-1 23,-10 13,-8 27,-12 30,-8 8,7 9,3 11,-44 1,-18 -1,-33 -5,-33 -4,0 -11,-9 -14,-20 -4,-11 -11,-17 -17,-14 -6,4 -8,3 -5,-3 4,-5 -4,-21 -16,-34 -12,-13 -21,-26 -19,-28 1,-3 -161,-6 -360,-7 -200,-1 -365,-2 -368,-4 -3,-1 -8,-2 -12,-1 -4,0 -11,-11 -14,-25 -5,-20 -1,-31 17,-48 24,-21 29,-21 342,-21 175,0 322,-2 325,-5 9,-6 11,-70 2,-70 -3,0 -7,-10 -8,-22 -2,-42 -9,-86 -15,-94 -3,-5 -192,-9 -421,-9 -229,0 -416,-3 -416,-8 0,-4 -4,-5 -10,-2 -5,3 -11,-1 -11,-9 -1,-9 -2,-22 -3,-28 -2,-14 22,-42 36,-44 4,-1 9,-3 11,-4 5,-5 607,-5 607,0 0,3 45,5 100,6 94,0 105,-3 101,-28 0,-5 3,-8 7,-8 5,0 9,-6 10,-12 0,-7 3,-24 7,-38 4,-14 7,-31 7,-37 1,-7 5,-13 10,-13 5,0 6,-5 3,-10 -3,-5 -2,-10 3,-10 12,0 10,-41 -2,-55 -6,-7 -72,-10 -186,-8 -157,3 -179,1 -196,-15 -24,-22 -28,-42 -9,-42 8,0 14,-6 12,-12 -1,-7 4,-12 11,-11 6,2 12,0 12,-5 0,-4 111,-7 248,-7 212,0 247,-3 244,-15 -2,-8 0,-12 4,-7 4,4 16,0 26,-10 10,-9 18,-12 18,-8 0,4 9,0 19,-9 11,-10 28,-19 38,-21 10,-2 18,-4 18,-5 0,-1 11,-4 25,-7 40,-8 55,-11 55,-13 0,-1 19,-3 41,-5 23,-1 47,-5 52,-9 6,-3 13,-2 16,2 3,5 24,8 46,7 22,-1 43,1 45,6 3,4 16,6 30,4 14,-1 25,2 25,7 0,6 7,8 15,5 8,-4 17,-2 20,4 4,5 10,7 15,4 5,-3 11,-1 15,5 4,6 10,8 15,5 5,-3 11,-1 15,5 4,6 10,8 15,5 5,-3 11,-1 15,5 4,6 11,8 16,5 5,-4 9,-1 9,5 0,6 4,9 9,6 5,-4 11,-2 13,3 1,5 10,11 18,13 8,2 21,10 28,18 12,13 13,13 6,0 -7,-14 14,1 54,38 7,7 17,10 21,7 5,-2 13,7 20,21 6,14 15,23 20,20 5,-3 12,1 15,10 3,8 9,14 13,12 5,-2 27,15 50,39 23,24 40,43 37,43 -2,0 5,10 15,22 11,13 28,33 38,45 11,12 28,39 39,60 10,21 25,44 32,51 7,8 10,18 7,23 -4,5 -1,10 4,10 38,5 77,5 86,0 6,-3 21,-7 35,-8 14,-2 31,-4 38,-5 6,-1 12,-5 12,-9 0,-4 8,-6 18,-4 9,1 22,0 27,-3 6,-4 19,-8 30,-9 11,-1 36,-5 55,-8 90,-14 140,-16 343,-18 119,-1 217,1 217,5 0,5 3,7 8,7 4,-1 9,-1 12,0 6,3 125,13 158,14 12,1 22,4 22,7 0,5 57,6 80,1 3,-1 6,-16 7,-33 1,-38 6,-58 29,-137 10,-31 17,-59 16,-63 -1,-5 3,-8 10,-8 6,0 8,-3 5,-7 -9,-8 141,-155 152,-148 5,2 12,-2 15,-11 4,-9 9,-14 13,-10 3,3 15,-1 25,-11 10,-9 18,-13 18,-8 0,4 7,2 15,-5 8,-7 15,-9 15,-5 0,4 7,2 15,-5 8,-7 15,-9 15,-5 0,4 6,3 13,-2 6,-6 20,-9 30,-8 9,2 17,0 17,-4 0,-4 18,-7 40,-6 22,1 40,-1 40,-5 0,-3 11,-6 25,-6 14,0 25,3 25,6 0,3 15,6 33,7 70,4 97,8 97,16 0,4 4,6 9,2 5,-3 12,-1 16,4 3,5 14,8 25,6 11,-2 20,1 20,6 0,6 5,7 10,4 6,-3 10,-1 10,6 0,7 3,9 7,6 3,-4 12,-2 20,4 7,6 13,8 13,4 0,-5 9,0 20,10 11,10 20,15 20,11 0,-4 14,2 30,14 17,12 30,18 30,14 0,-4 8,3 19,14 10,12 21,22 25,22 6,0 43,32 117,102 28,27 47,48 43,48 -4,0 3,9 16,20 13,11 20,20 16,20 -4,0 -1,6 6,14 7,7 20,24 28,36 8,12 20,28 27,35 7,7 9,15 6,19 -4,3 -1,6 6,6 7,0 9,5 6,10 -3,6 -1,10 4,10 6,0 10,3 9,8 -2,4 6,27 16,52 20,47 21,49 31,90 12,48 16,85 16,145 0,54 -5,110 -10,110 -2,0 -4,10 -7,22 -2,12 -13,38 -24,57 -11,20 -17,36 -14,36 2,0 0,6 -6,13 -39,46 -49,60 -46,66 1,3 -5,14 -16,24 -10,9 -18,15 -18,12 0,-2 -15,10 -34,27 -28,26 -33,36 -29,62 3,17 10,34 16,38 7,4 9,8 4,8 -4,0 -1,13 7,29 9,16 12,31 9,35 -4,3 -1,6 6,6 7,0 10,4 7,9 -4,5 -1,11 4,13 6,2 12,10 14,18 2,8 9,31 17,50 7,19 12,38 11,43 -1,4 3,7 10,7 6,0 9,3 5,6 -3,4 0,19 8,34 8,15 11,30 8,34 -4,3 -2,6 4,6 5,0 10,7 11,15 1,8 3,22 4,30 1,8 5,15 9,15 4,0 6,9 4,20 -2,11 0,20 4,20 4,0 8,7 9,15 1,8 3,22 4,30 1,8 5,15 9,15 4,0 6,9 4,20 -2,11 1,20 7,20 6,0 9,3 6,6 -4,3 -2,20 4,37 10,34 18,77 21,115 0,12 4,22 8,22 4,0 5,14 4,30 -1,17 1,30 5,30 4,0 6,14 5,30 -1,17 0,30 4,30 4,0 8,15 9,33 1,17 4,57 7,87 13,127 12,375 -2,402 -16,33 -64,79 -75,72 -4,-3 -8,0 -8,5 0,6 -3,10 -7,9 -5,-1 -18,3 -31,10 -12,7 -27,10 -32,7 -6,-3 -10,-2 -10,3 0,5 -6,9 -12,10 -40,5 -55,9 -66,16 -8,5 -30,10 -50,11 -20,2 -37,4 -37,5 0,2 -55,10 -100,14 -17,1 -35,4 -40,7 -6,3 -23,5 -40,5 -34,-1 -65,29 -60,56 2,10 0,18 -5,18 -5,0 -7,9 -5,20 2,11 -1,20 -7,20 -6,0 -8,3 -5,6 3,4 2,15 -4,26 -6,11 -13,31 -15,44 -5,28 -99,211 -121,237 -9,9 -13,17 -9,17 4,0 1,7 -6,15 -29,33 -38,45 -33,45 4,0 0,6 -7,14 -27,28 -141,213 -170,274 -26,57 -29,118 -5,119 6,1 26,5 42,10 17,5 45,9 62,8 18,0 34,4 37,10 2,7 33,10 87,8 96,-4 183,-10 187,-13 1,-1 16,-4 32,-5 17,-1 31,-4 33,-5 2,-2 21,-4 132,-15 93,-9 300,-6 300,5 0,1 24,3 53,4 37,2 55,-2 61,-12 15,-27 104,-112 118,-112 7,0 13,-5 13,-12 0,-6 3,-8 7,-5 3,4 12,2 20,-4 7,-6 13,-8 13,-3 0,4 7,-1 16,-12 8,-10 12,-12 8,-4 -7,13 -6,13 11,0 10,-8 20,-14 22,-12 1,1 5,1 8,1 3,-1 13,-2 23,-3 9,-1 22,-4 27,-7 9,-5 29,-5 40,1 3,1 10,4 15,5 6,1 15,3 20,4 13,1 13,38 -1,47 -6,3 -32,8 -57,10 -26,1 -60,6 -77,10 -16,3 -36,7 -42,7 -7,0 -13,4 -13,9 0,4 -4,7 -8,5 -5,-1 -26,17 -48,39 -29,30 -39,49 -39,70 1,16 5,27 10,26 4,-2 11,1 14,6 3,6 13,12 21,14 8,2 22,12 32,23 9,11 17,17 18,13 0,-4 13,5 29,21 33,33 63,85 54,95 -4,3 -2,6 4,6 5,0 11,7 12,15 4,32 3,81 -2,100 -8,33 -40,95 -49,95 -4,0 -8,6 -8,13 0,6 -14,23 -31,37 -17,14 -41,35 -55,48 -13,13 -24,19 -24,15 0,-4 -7,1 -15,11 -8,11 -15,16 -15,10 0,-5 -7,0 -15,10 -8,11 -15,16 -15,12 0,-4 -12,2 -26,13 -15,11 -30,19 -34,16 -4,-3 -11,2 -14,11 -3,8 -10,13 -15,10 -5,-4 -11,-2 -13,3 -1,5 -10,11 -18,13 -8,2 -17,5 -20,8 -13,14 -116,75 -122,72 -5,-1 -8,2 -8,6 0,10 -50,37 -62,34 -5,-1 -8,2 -8,6 0,7 -40,32 -60,37 -3,1 -23,9 -45,19 -44,19 -71,28 -97,29 -10,1 -18,4 -18,7 0,4 -6,7 -12,8 -26,3 -63,10 -63,12 0,2 -34,9 -75,16 -50,8 -300,12 -300,5 z m 363,-146 c 133,-30 225,-69 387,-164 69,-40 156,-91 194,-113 168,-98 219,-194 143,-271 -34,-33 -117,-70 -192,-84 -48,-9 -294,-10 -350,-1 -123,19 -196,44 -357,124 -58,29 -120,55 -136,57 -39,6 -72,-23 -72,-63 0,-35 17,-53 84,-87 51,-27 51,-27 -16,-34 -138,-15 -170,-22 -207,-48 -40,-29 -55,-70 -47,-135 10,-76 46,-146 183,-351 66,-99 132,-200 146,-225 30,-53 83,-182 92,-225 22,-106 23,-141 10,-258 -10,-92 -20,-107 -74,-108 -25,-1 -57,-3 -71,-4 -14,-2 -115,-7 -225,-10 -168,-6 -198,-5 -189,6 48,63 53,295 8,381 -8,15 -12,28 -9,28 9,0 -100,211 -163,316 -88,147 -147,263 -151,297 0,4 -8,21 -16,37 -9,17 -13,30 -11,30 3,0 0,15 -5,33 -26,92 -28,238 -4,332 9,33 17,65 18,71 2,7 20,47 42,90 30,62 58,98 125,164 94,93 186,149 322,194 104,35 162,43 308,45 100,1 147,-4 233,-24 z M 2220,4695 c 240,-43 389,-153 511,-379 46,-85 118,-292 144,-414 11,-53 60,-175 96,-241 78,-141 193,-267 322,-351 62,-41 62,-41 -113,-34 -96,4 -193,8 -215,9 -22,2 -68,4 -101,4 -61,1 -62,2 -128,62 -50,46 -75,80 -101,134 -35,73 -67,181 -79,265 -3,25 -8,56 -10,70 -3,14 -7,45 -10,70 -8,56 -15,98 -22,130 -3,14 -8,36 -10,50 -11,61 -57,180 -92,236 -70,115 -139,178 -261,239 -41,21 -79,38 -85,40 -30,6 -72,18 -81,24 -5,3 -14,6 -20,8 -128,28 -195,50 -195,64 0,5 3,9 8,9 32,2 128,13 131,16 10,9 246,0 311,-11 z M 4213,3432 c -2,-51 -37,-103 -86,-129 -45,-24 -52,-25 -147,-24 -160,2 -283,21 -420,67 -79,27 -250,112 -250,125 0,4 204,7 453,6 452,-2 452,-2 450,-45 z m 907,34 c 121,-11 264,-49 258,-68 -6,-18 -88,-45 -168,-54 -25,-3 -51,-7 -59,-10 -8,-2 -45,-7 -84,-11 -66,-6 -70,-5 -63,13 4,10 10,42 13,69 6,66 10,75 25,71 7,-3 42,-7 78,-10 z m -2607,-53 c 15,-26 36,-62 47,-79 20,-30 20,-30 -53,-22 -39,4 -94,10 -122,13 -111,14 -265,57 -265,75 0,16 196,53 316,59 50,2 50,2 77,-46 z m -357,-181 c 38,-11 89,-24 114,-27 25,-4 52,-9 60,-10 8,-1 44,-6 80,-10 36,-3 76,-8 90,-10 14,-2 72,-7 130,-10 58,-4 121,-8 140,-10 251,-22 1551,-23 1910,0 25,1 97,5 160,9 63,4 129,9 145,11 17,2 57,7 90,10 99,10 238,35 305,55 63,19 63,19 56,-106 -3,-69 -8,-129 -10,-132 -2,-4 -7,-34 -10,-67 -25,-226 -126,-567 -226,-764 -29,-59 -33,-63 -58,-56 -15,3 -67,9 -117,12 -278,16 -593,-177 -730,-447 -15,-30 -38,-84 -50,-119 -25,-71 -31,-75 -115,-86 -29,-4 -62,-9 -74,-11 -95,-18 -459,-25 -586,-11 -139,16 -155,18 -169,23 -8,2 -28,7 -46,10 -17,2 -53,10 -80,17 -48,12 -48,12 -47,125 1,86 -4,125 -18,168 -30,85 -76,158 -131,208 -45,41 -136,94 -171,100 -7,1 -22,5 -33,9 -74,24 -241,23 -322,-2 -2,-1 -4,0 -5,1 -2,1 -13,-4 -25,-10 -19,-11 -24,-9 -37,10 -33,51 -150,334 -161,390 -2,9 -19,66 -38,125 -20,59 -38,137 -42,172 -4,35 -13,87 -21,115 -32,115 -31,108 -38,181 -15,138 -15,167 -2,162 8,-3 44,-14 82,-25 z m -160,-297 c 13,-9 18,-32 22,-89 4,-76 4,-76 -29,-76 -172,-2 -272,-85 -271,-222 0,-70 15,-118 57,-183 72,-114 217,-206 378,-240 79,-17 86,-20 101,-51 15,-33 15,-34 -12,-51 -15,-10 -50,-34 -77,-55 -51,-37 -51,-37 -112,-19 -314,95 -533,355 -518,616 5,82 12,109 41,167 66,131 203,214 351,215 29,0 60,-5 69,-12 z m 46,-283 c 6,-6 8,-12 4,-12 -5,0 -3,-6 3,-14 6,-8 11,-18 9,-22 -1,-5 4,-20 12,-34 7,-14 12,-26 11,-28 -1,-1 5,-27 14,-57 8,-30 14,-56 13,-58 -2,-2 2,-10 9,-18 6,-8 14,-27 17,-42 2,-15 7,-31 11,-37 3,-5 8,-19 11,-30 2,-11 6,-29 8,-40 3,-11 2,-20 -2,-21 -29,-5 -72,-4 -72,1 0,4 -7,7 -15,8 -8,1 -22,3 -30,4 -8,1 -15,5 -15,10 0,5 -4,7 -9,3 -5,-3 -12,-1 -16,5 -4,6 -11,7 -17,4 -7,-4 -8,-2 -4,4 4,6 -4,16 -16,23 -13,7 -35,25 -50,41 -14,15 -31,28 -37,28 -6,0 -7,7 -4,17 4,9 2,14 -3,11 -11,-7 -35,17 -26,26 3,4 1,10 -5,14 -21,13 -41,75 -37,115 4,44 31,100 44,92 6,-4 10,-2 10,4 0,13 23,17 102,16 39,0 73,-6 80,-13 z m 585,-938 c 56,-42 68,-69 68,-158 0,-75 -3,-85 -33,-133 -63,-98 -156,-155 -256,-155 -182,0 -220,232 -64,384 86,83 218,112 285,62 z m 2380,0 c 56,-42 68,-70 68,-152 -1,-88 -16,-127 -75,-195 -100,-113 -266,-133 -339,-41 -93,118 -7,327 163,394 64,25 145,22 183,-6 z"
       id="path1"
       style="display:inline" />
    <path
       d="m 4967,5110 c -54,-43 -59,-145 -10,-194 14,-14 28,-26 32,-27 3,0 15,-2 26,-4 34,-7 80,14 98,44 19,32 22,96 8,134 -24,63 -103,87 -154,47 z"
       id="path2" />
    <path
       d="m 5543,4848 c -6,-7 -13,-23 -16,-36 -7,-28 23,-62 50,-57 10,2 23,4 29,4 6,1 16,11 21,24 11,24 2,54 -21,69 -17,12 -53,9 -63,-4 z"
       id="path3" />
    <path
       d="m 702,2813 c -19,-19 -20,-24 -7,-36 8,-8 11,-17 8,-21 -4,-3 -1,-7 5,-7 15,-2 31,-6 35,-9 1,-1 121,-3 266,-3 282,-2 297,0 297,48 -1,48 -11,50 -306,50 -272,1 -276,1 -298,-22 z"
       id="path4" />
    <path
       d="m 140,2447 c 0,-4 -4,-6 -9,-3 -5,3 -12,-6 -16,-21 -4,-17 -2,-29 4,-31 6,-2 9,-7 7,-11 -3,-4 0,-9 7,-10 7,-1 253,-3 547,-4 535,-2 535,-2 553,19 20,26 14,50 -16,61 -30,10 -1077,11 -1077,0 z"
       id="path5"
       style="display:inline" />
    <path
       d="m 580,2067 c 0,-4 -4,-6 -8,-3 -5,3 -15,-6 -23,-20 -12,-24 -12,-28 8,-44 12,-10 20,-20 18,-22 -8,-8 4,-8 385,-11 364,-3 400,0 400,31 0,7 5,10 10,7 19,-12 10,32 -11,51 -20,18 -42,19 -400,19 -208,1 -379,-3 -379,-8 z"
       id="path6"
       style="display:inline" />
  </g>
  <g
     id="g21">
    <path
       id="path7"
       style="display:inline;fill:#ffd53d;stroke-width:1.85735"
       sodipodi:type="inkscape:offset"
       inkscape:radius="3.715884"
       inkscape:original="M 640.56445 143.90625 C 628.23603 143.50502 616.08105 144.71429 604.74609 147.61328 C 559.04365 159.302 527.59007 196.15703 527.50977 238.11328 C 527.46426 261.89092 532.42003 275.34889 558.10938 321.22266 C 578.2118 357.11981 581.90043 368.14669 580.82227 389.11523 C 580.3758 397.79835 579.3407 406.48239 578.52344 408.41406 C 577.09029 411.80138 578.20665 411.89475 609.95312 411.02148 C 637.54883 410.26238 643.37542 409.60896 646.00195 406.98242 C 648.55836 404.42602 649.12518 400.18738 649.08398 383.94531 C 649.03879 366.13495 648.43735 362.55652 643.36133 349.92969 C 640.24123 342.16832 629.16271 322.7756 618.74219 306.83594 C 596.56249 272.90894 591.85075 263.18976 591.81055 251.2832 C 591.76376 237.43512 597.06356 233.63677 621.03516 230.33594 L 630.07422 229.08984 L 623.35742 224.52539 C 616.27553 219.71312 614.26449 212.07145 618.86914 207.4668 C 622.61324 203.7227 627.28642 204.85171 650.72656 215.16602 C 663.13632 220.62665 677.4164 226.11102 682.46094 227.35352 C 696.43256 230.79482 737.26192 230.33298 748.47852 226.60742 C 759.22244 223.03887 768.94336 214.71991 768.94336 209.09375 C 768.94336 199.39792 742.22539 179.79325 700.6582 158.98828 C 682.14137 149.72035 661.11183 144.57497 640.56445 143.90625 z M 669.77344 166.06836 C 672.35781 165.9624 675.09527 166.57159 677.80078 168.01953 C 685.73422 172.26537 687.25212 188.73053 680.4082 196.29297 C 678.48708 198.41579 674.76033 199.66602 670.34961 199.66602 C 661.45757 199.66602 655.64453 193.05689 655.64453 182.94922 C 655.64453 173.13597 662.02033 166.38625 669.77344 166.06836 z M 742.87305 201.52344 C 746.96039 201.52344 752.22656 206.22872 752.22656 209.88086 C 752.22656 211.26724 750.91388 213.71503 749.30859 215.32031 C 747.70332 216.9256 745.25552 218.23828 743.86914 218.23828 C 740.93792 218.23828 735.51172 213.24956 735.51172 210.55469 C 735.51172 206.48661 739.55708 201.52344 742.87305 201.52344 z "
       d="m 640.68555,140.19141 c -12.65039,-0.41171 -25.14693,0.82673 -36.85938,3.82226 -47.1225,12.05191 -79.94935,50.28259 -80.0332,94.0918 -0.0232,12.14832 1.29711,22.11654 5.8789,34.56055 4.5818,12.44401 12.32472,27.38987 25.19532,50.37304 10.0193,17.89159 15.86235,29.47466 19.01758,38.90625 3.15522,9.43159 3.75276,16.74464 3.22656,26.97852 -0.21894,4.25793 -0.58368,8.53759 -0.98828,11.93359 -0.20231,1.698 -0.41561,3.17734 -0.61524,4.29102 -0.19962,1.11367 -0.48155,1.99635 -0.40625,1.81836 -0.21406,0.50595 -0.48863,1.08352 -0.62304,2.0625 -0.13442,0.97897 0.11786,2.64227 1.05078,3.74414 1.86583,2.20374 3.66065,2.05537 5.95898,2.24609 4.59666,0.38145 12.68834,0.15357 28.56641,-0.2832 13.81996,-0.38016 22.19391,-0.72488 27.69922,-1.3418 5.5053,-0.61691 8.69921,-1.60936 10.875,-3.78516 1.9072,-1.90719 3.06181,-4.72037 3.57031,-8.52148 0.5085,-3.80111 0.62227,-8.98726 0.60156,-17.15234 -0.0454,-17.89275 -0.86343,-22.63457 -5.99219,-35.39258 -3.45652,-8.59824 -14.44122,-27.65481 -24.95703,-43.74024 -11.06686,-16.92834 -17.73146,-27.77911 -21.5332,-35.62109 -3.80174,-7.84198 -4.77256,-12.44361 -4.79102,-17.91016 -0.0218,-6.44886 0.8068,-9.06993 4.05274,-11.39648 3.24593,-2.32655 10.13124,-4.22823 21.96289,-5.85742 l 9.03906,-1.2461 a 3.7162556,3.7162556 0 0 0 1.58008,-6.75586 l -6.7168,-4.56445 c -2.91992,-1.98414 -4.58631,-4.44612 -5.12109,-6.47851 -0.53478,-2.0324 -0.21244,-3.4946 1.17187,-4.87891 0.59671,-0.5967 0.78506,-0.69732 1.34571,-0.80664 0.56065,-0.10932 1.70365,-0.11265 3.69726,0.36914 3.98723,0.96358 11.00891,3.76954 22.69141,8.91016 12.5321,5.51446 26.41294,10.93422 32.3418,12.39453 7.83944,1.9309 21.44993,2.57475 34.97265,2.42187 13.52272,-0.15288 26.26076,-0.9746 33.10547,-3.24804 5.87354,-1.95088 11.32765,-5.1138 15.50586,-8.68946 4.17821,-3.57566 7.50391,-7.39837 7.50391,-12.35156 0,-4.13055 -2.34344,-7.63816 -5.77149,-11.4707 -3.42805,-3.83255 -8.23254,-7.95801 -14.30273,-12.41211 -12.14039,-8.90821 -29.34728,-19.07597 -50.26367,-29.54492 -19.03155,-9.52556 -40.55237,-14.78842 -61.63672,-15.47461 z m 29.24023,29.58984 c 1.89459,-0.0777 3.95267,0.35317 6.12109,1.51367 2.29179,1.22653 4.45882,5.1913 4.89844,9.95899 0.43963,4.76768 -0.863,9.85984 -3.29297,12.54492 -0.80389,0.8883 -3.5942,2.15039 -7.30273,2.15039 -3.52539,0 -6.03495,-1.18842 -7.89649,-3.30469 -1.86153,-2.11627 -3.09179,-5.35383 -3.09179,-9.69531 0,-8.20374 4.87925,-12.93487 10.56445,-13.16797 z m 72.94727,35.45898 c 0.61778,0 2.42012,0.689 3.73437,1.86329 1.31425,1.17428 1.90235,2.7373 1.90235,2.77734 0,-0.47959 -0.0568,0.21476 -0.41407,0.88086 -0.35729,0.6661 -0.92108,1.43866 -1.41406,1.93164 -0.49297,0.49297 -1.26554,1.05677 -1.93164,1.41406 -0.6661,0.35729 -1.36045,0.41406 -0.88086,0.41406 0.64244,0 -1.42717,-0.62086 -2.76367,-1.84961 -0.66825,-0.61437 -1.25718,-1.30548 -1.5918,-1.8164 -0.14791,-0.22584 -0.20081,-0.39203 -0.23633,-0.49219 0.0653,-0.84728 0.62782,-2.3672 1.55274,-3.50195 0.9802,-1.20257 2.2389,-1.6211 2.04297,-1.6211 z"
       transform="scale(0.75)" />
    <path
       id="path8"
       style="display:inline;fill:#ffd53d;stroke-width:1.85735"
       sodipodi:type="inkscape:offset"
       inkscape:radius="1.8573483"
       inkscape:original="M 268.89844 224.11719 C 253.79743 224.20848 236.95516 225.50204 238.35352 226.90039 C 238.84231 227.38918 247.72436 230.24704 258.0918 233.25195 C 293.50271 243.5155 311.78987 256.29736 323.75195 279.14453 C 332.07612 295.04339 335.19233 306.19752 339.7832 336.52539 C 345.48253 374.17591 351.2013 388.7648 365.86133 403.04492 C 373.46809 410.45455 373.53708 410.47792 391.51758 411.53711 C 401.43324 412.12121 416.90609 412.74764 425.90234 412.92969 L 442.25977 413.25977 L 430.54688 404.29492 C 407.86366 386.93346 390.91483 360.55582 381.85156 328.50781 C 370.63571 288.84821 361.79887 269.48381 347.50586 253.24609 C 332.40285 236.08817 310.70703 226.45624 282.67969 224.4668 C 278.77324 224.18951 273.93211 224.08676 268.89844 224.11719 z "
       d="m 268.88672,222.25977 c -7.59936,0.0459 -15.61356,0.39254 -21.60742,0.9082 -2.99693,0.25783 -5.47314,0.55242 -7.22657,0.89844 -0.87671,0.173 -1.53971,0.32228 -2.20507,0.63867 -0.33269,0.15819 -0.74221,0.29525 -1.15235,1 -0.20506,0.35237 -0.34306,0.9228 -0.24219,1.42773 0.10088,0.50493 0.36677,0.85895 0.5879,1.08008 0.36777,0.36777 0.49086,0.37603 0.65234,0.45898 0.16148,0.083 0.32048,0.15388 0.50195,0.23047 0.36295,0.15319 0.80976,0.32322 1.35938,0.52149 1.09923,0.39653 2.59339,0.89699 4.39453,1.47656 3.60227,1.15914 8.42628,2.62796 13.625,4.13477 35.17911,10.19636 52.79989,22.56047 64.5332,44.9707 8.24695,15.75136 11.2575,26.52535 15.83985,56.79687 5.71622,37.76211 11.67717,53.01943 26.61718,67.57227 3.80469,3.70609 6.0318,5.86272 9.65039,7.06055 3.6186,1.19782 8.20245,1.42544 17.19336,1.95507 9.95107,0.58619 25.41769,1.21357 34.45703,1.39649 l 16.35743,0.33008 a 1.8575341,1.8575341 0 0 0 1.16601,-3.33203 l -11.71289,-8.96485 c -22.31679,-17.081 -39.06622,-43.09701 -48.03711,-74.81836 -11.24229,-39.75308 -20.21224,-59.47997 -34.73828,-75.98242 -15.45811,-17.56134 -37.70769,-27.39162 -66.08984,-29.40625 -3.98223,-0.28267 -8.85769,-0.38414 -13.92383,-0.35351 z"
       transform="scale(0.75)" />
  </g>
  <g
     id="g20">
    <path
       id="path9"
       style="display:inline;fill:#5382a1;stroke-width:1.85735"
       sodipodi:type="inkscape:offset"
       inkscape:radius="7.3431063"
       inkscape:original="M 278.82227 418.00195 C 276.76675 417.64565 276.75334 419.30752 276.77734 425.84375 C 276.79508 430.6708 278.06276 440.47029 279.59375 447.62109 C 281.12473 454.77189 284.01242 468.56292 286.01172 478.26758 C 290.559 500.34011 300.11854 529.85346 309.77344 551.63281 C 316.26567 566.27787 317.72726 568.30215 321.57422 567.9707 C 323.98927 567.76262 332.40907 567.01492 340.28516 566.30859 C 359.35918 564.598 374.28001 567.86457 388.05469 576.76758 C 399.81411 584.36806 404.44971 589.94907 411.39453 604.86719 C 415.11143 612.85144 416.0147 617.72401 416.0293 629.87891 C 416.04172 640.20591 416.83184 645.62707 418.5332 647.03906 C 420.82354 648.93988 440.90942 653.60227 454.12305 655.30078 C 457.18768 655.69471 473.84551 656.14186 491.14258 656.29492 C 523.67638 656.58281 553.16403 653.93737 558.16406 650.28125 C 559.74279 649.12685 563.86558 641.66953 567.32617 633.70898 C 570.78675 625.74843 577.1571 614.64744 581.48242 609.04102 C 603.30069 580.76048 640.74393 563.50106 673.60156 566.58008 L 686.95898 567.83203 L 692.51562 556.82422 C 700.55881 540.89079 710.35355 511.66262 715.82227 487.2793 C 720.63599 465.81651 726.0004 421.70353 724.03516 419.73828 C 723.44691 419.15003 714.71432 420.32675 704.62891 422.35156 C 675.43748 428.2122 654.21217 429.74465 569.66406 432.09961 C 432.81026 435.91147 311.74485 430.37435 281.63281 418.92578 C 280.41951 418.46448 279.50744 418.12072 278.82227 418.00195 z "
       d="m 277.0918,410.7207 c -1.18986,0.16661 -2.50639,0.58575 -3.73828,1.46875 -2.46379,1.76601 -3.19509,4.14085 -3.50977,5.59375 -0.62935,2.90581 -0.42218,4.81247 -0.41016,8.08789 0.0223,6.07614 1.33568,15.60479 2.98047,23.28711 1.52208,7.10922 4.4115,20.9092 6.40625,30.5918 4.69665,22.79756 14.31706,52.47484 24.24024,74.85937 3.27805,7.39458 5.15625,11.65151 7.65234,15.10743 1.24805,1.72796 2.87172,3.44263 5.14453,4.52734 2.27281,1.08471 4.70941,1.18412 6.34766,1.04297 2.45966,-0.21192 10.8557,-0.95733 18.73633,-1.66406 17.90632,-1.60587 30.69486,1.27724 43.12695,9.3125 11.12197,7.18847 13.95702,10.6113 20.66992,25.03125 3.42659,7.36063 3.9331,10.12841 3.94727,21.92187 0.006,5.34923 0.19196,9.52207 0.69531,12.97266 0.50335,3.45059 0.48822,6.52947 4.46289,9.82812 1.7481,1.4508 2.55961,1.5865 3.64453,2.01367 1.08492,0.42718 2.25618,0.81435 3.58399,1.2168 2.6556,0.8049 5.90901,1.64493 9.5,2.47852 7.18198,1.66716 15.63238,3.28795 22.61523,4.18554 2.8525,0.36667 7.14373,0.46285 13.91016,0.64454 6.76643,0.18168 15.28952,0.33325 23.98046,0.41015 16.48554,0.14588 32.17152,-0.44736 44.55665,-1.55859 6.19256,-0.55562 11.54588,-1.23345 15.89648,-2.0625 4.3506,-0.82905 7.2814,-1.11376 10.9668,-3.8086 2.20616,-1.61319 2.52732,-2.53365 3.37109,-3.78906 0.84377,-1.2554 1.6944,-2.69004 2.5957,-4.32031 1.80262,-3.26055 3.77458,-7.27368 5.59571,-11.46289 3.14209,-7.22791 9.64459,-18.45381 13.23632,-23.10938 20.21899,-26.20757 55.81541,-42.42956 85.61915,-39.63672 l 13.35742,1.25196 a 7.3438406,7.3438406 0 0 0 7.24023,-4.00196 l 5.55664,-11.00781 c 8.59043,-17.01749 18.31374,-46.25856 23.91797,-71.24609 2.51449,-11.21128 5.05133,-27.65693 6.77149,-41.80274 0.86007,-7.0729 1.50929,-13.53063 1.82617,-18.51562 0.15843,-2.49249 0.23963,-4.59397 0.19922,-6.4082 -0.0202,-0.90712 -0.0582,-1.72245 -0.20899,-2.69727 -0.15079,-0.97482 0.49662,-2.06977 -2.34961,-4.91602 -1.859,-1.859 -2.98687,-1.87581 -3.71484,-2.04687 -0.72797,-0.17106 -1.18259,-0.20205 -1.5957,-0.22852 -0.82624,-0.0529 -1.45388,-0.0293 -2.15235,0.01 -1.39693,0.0781 -2.97799,0.25377 -4.84961,0.50586 -3.74324,0.50417 -8.5559,1.32636 -13.73047,2.36523 -28.76013,5.77405 -49.23093,7.25398 -133.72461,9.60743 -68.26773,1.90149 -132.6071,1.4685 -183.5039,-0.85938 -50.89681,-2.32788 -89.3449,-7.13559 -101.71289,-11.83789 -1.22323,-0.46507 -2.21197,-0.9562 -4.16602,-1.29492 -0.73085,-0.12669 -1.79452,-0.21349 -2.98437,-0.0469 z"
       transform="scale(0.75)" />
    <path
       id="path10"
       style="display:inline;fill:#5382a1;stroke-width:1.85735"
       sodipodi:type="inkscape:offset"
       inkscape:radius="2.4280815"
       inkscape:original="M 253.85352 459.43164 C 235.51023 459.84491 217.5299 472.6145 209.39453 491.00586 C 203.9328 503.35298 205.45817 525.43779 212.80664 540.42578 C 222.46938 560.13399 241.73524 576.69609 267.16602 587.15625 C 272.94541 589.53342 278.52146 591.49718 279.55664 591.52148 C 282.23478 591.5842 300.89062 578.78483 300.89062 576.88477 C 300.89063 573.83916 295.96008 571.27759 281.01562 566.55664 C 255.26104 558.42077 236.84682 543.20013 230.60547 524.88867 C 227.31102 515.22313 227.96414 502.31198 232.08789 495.54883 C 237.05114 487.40887 242.99819 483.92467 256.20898 481.41406 L 267.45898 479.27539 L 267.45898 470.52344 C 267.45898 465.70974 266.52835 461.19608 265.39258 460.49414 C 264.2568 459.79219 259.06446 459.31424 253.85352 459.43164 z "
       d="m 253.79883,457.00391 c -19.43358,0.43783 -38.12241,13.798 -46.625,33.01953 -5.96271,13.47967 -4.25192,35.75544 3.45312,51.4707 9.98764,20.37088 29.74956,37.26916 55.61524,47.9082 2.92622,1.20361 5.79443,2.3001 8.09179,3.10938 1.14869,0.40464 2.15121,0.7372 2.97266,0.98047 0.82145,0.24326 1.21864,0.43415 2.19336,0.45703 1.33398,0.0312 1.86483,-0.35021 2.74609,-0.75 0.88127,-0.39979 1.87745,-0.93178 2.98243,-1.56641 2.20995,-1.26925 4.83056,-2.94706 7.37304,-4.6914 2.54249,-1.74434 4.99584,-3.54481 6.8711,-5.08008 0.93762,-0.76764 1.72674,-1.46071 2.35546,-2.10938 0.31437,-0.32433 0.58795,-0.63112 0.84766,-1.00586 0.25971,-0.37473 0.64258,-0.74923 0.64258,-1.86132 0,-1.41655 -0.66492,-2.83284 -1.66016,-3.89454 -0.99523,-1.06169 -2.29128,-1.91717 -3.98047,-2.79492 -3.37837,-1.7555 -8.41226,-3.57775 -15.93164,-5.95312 -25.24213,-7.97399 -42.93839,-22.81676 -48.84179,-40.13672 -3.04982,-8.9478 -2.21215,-21.60527 1.25586,-27.29297 4.67476,-7.66683 9.56465,-10.55504 22.50195,-13.01367 l 11.25,-2.13867 a 2.4283243,2.4283243 0 0 0 1.97461,-2.38477 v -8.75195 c 0,-2.56333 -0.23888,-5.02162 -0.65625,-7.04688 -0.20868,-1.01262 -0.45752,-1.9136 -0.79297,-2.72461 -0.33545,-0.811 -0.61984,-1.61488 -1.76758,-2.32422 -0.88292,-0.54567 -1.51575,-0.62995 -2.36328,-0.79492 -0.84753,-0.16496 -1.83082,-0.293 -2.93359,-0.39453 -2.20554,-0.20306 -4.87642,-0.29515 -7.57422,-0.23437 z"
       transform="scale(0.75)" />
  </g>
  <g
     id="g22"
     style="display:inline">
    <path
       id="path15"
       style="display:inline;fill:#f0f0f0;stroke-width:1.85735"
       sodipodi:type="inkscape:offset"
       inkscape:radius="2.8982067"
       inkscape:original="M 653.63867 619.89062 C 651.35966 620.05561 648.93454 620.77615 645.41797 622.11914 C 634.34425 626.34823 626.6968 632.92989 621.84375 642.41211 C 614.3472 657.05936 617.6355 671.92797 629.82031 678.47461 C 640.90738 684.43146 660.3811 676.37101 669.99219 661.84766 C 674.16359 655.54426 675.08953 652.05785 675.11523 642.5625 C 675.15185 629.01886 672.07056 624.31604 660.97656 620.99219 C 658.05074 620.11559 655.91768 619.72564 653.63867 619.89062 z "
       d="m 653.42969,617 c -2.73743,0.19818 -5.43625,1.03394 -9.04492,2.41211 -11.59451,4.42798 -19.95327,11.58243 -25.1211,21.67969 -4.00778,7.83066 -5.2184,15.89094 -3.64258,23.01562 1.57583,7.12468 6.02564,13.26509 12.82813,16.91992 6.64684,3.57121 15.12449,2.80119 23.11914,-0.50781 7.99465,-3.309 15.67333,-9.26512 20.83984,-17.07226 4.3339,-6.54895 5.57927,-11.19512 5.60547,-20.87696 0.0189,-6.99251 -0.71389,-12.16362 -3.36914,-16.21484 -2.65525,-4.05122 -6.99962,-6.39007 -12.83594,-8.13867 -3.07043,-0.91993 -5.64199,-1.41493 -8.3789,-1.2168 z"
       transform="scale(0.75)" />
    <path
       id="path16"
       style="display:inline;fill:#f0f0f0;stroke-width:1.85735"
       sodipodi:type="inkscape:offset"
       inkscape:radius="5.7177463"
       inkscape:original="M 337.80664 621.24023 C 313.87894 621.61856 290.25476 656.57507 307.87109 674.19141 C 317.45565 683.77596 338.92325 677.87741 350.54883 662.46484 C 355.6458 655.70754 356.61133 652.83616 356.61133 644.44336 C 356.61133 632.41635 354.02498 626.10866 347.96094 623.3457 C 344.64965 621.83698 341.22488 621.18619 337.80664 621.24023 z "
       d="m 337.7168,615.52344 c -14.71746,0.2327 -27.78853,10.35991 -35.33985,22.7539 -3.77566,6.197 -6.20575,13.11185 -6.34179,20.15039 -0.13605,7.03855 2.2685,14.28217 7.79296,19.80664 6.71626,6.71626 16.81076,7.54135 26.13086,4.98047 9.32011,-2.56087 18.53377,-8.5295 25.1543,-17.30664 5.35686,-7.10184 7.21485,-12.63352 7.21484,-21.46484 0,-6.42336 -0.62841,-11.67917 -2.47851,-16.19141 -1.85011,-4.51223 -5.27074,-8.17438 -9.51758,-10.10937 -4.10037,-1.86825 -8.41119,-2.68561 -12.61523,-2.61914 z"
       transform="scale(0.75)" />
  </g>
  <g
     id="g28">
    <path
       id="path26"
       style="fill:#f8981d;stroke-width:1.85735"
       sodipodi:type="inkscape:offset"
       inkscape:radius="5.2533779"
       inkscape:original="M 671.06836 388.63477 L 669.87695 395.83984 C 669.2223 399.8029 668.67722 404.09967 668.66602 405.38867 C 668.65116 407.09209 670.80167 407.41267 676.53906 406.56445 C 695.42931 403.77173 712.19433 400.17285 713.80273 398.56445 C 716.16278 396.2044 698.89591 391.22131 683.35938 389.77734 L 671.06836 388.63477 z "
       d="m 671.55469,383.4043 a 5.2539033,5.2539033 0 0 0 -5.66992,4.37304 l -1.19141,7.20508 a 5.2539033,5.2539033 0 0 0 0,0.002 c -0.67774,4.10285 -1.25807,7.69098 -1.28125,10.35938 -0.0134,1.53253 0.76597,3.7396 2.18555,4.99805 1.41957,1.25844 2.86937,1.60753 4.07226,1.78711 2.40578,0.35914 4.57936,0.0848 7.63672,-0.36719 9.54567,-1.41123 18.54066,-3.02315 25.44727,-4.50586 3.4533,-0.74136 6.37474,-1.4441 8.66796,-2.10938 1.14662,-0.33264 2.12958,-0.64978 3.03125,-1.00781 0.90168,-0.35802 1.59641,-0.39132 3.06446,-1.85937 0.87711,-0.87712 1.76205,-2.53819 1.75586,-4.20703 -0.006,-1.66885 -0.69168,-2.90508 -1.27735,-3.67774 -1.17133,-1.54532 -2.19592,-2.03904 -3.2832,-2.62305 -2.17457,-1.16801 -4.78304,-2.07441 -7.96289,-2.99218 -6.35971,-1.83555 -14.76014,-3.4755 -22.9043,-4.23243 z"
       transform="scale(0.75)" />
    <path
       id="path27"
       style="fill:#f8981d;stroke-width:1.85735"
       sodipodi:type="inkscape:offset"
       inkscape:radius="5.5720534"
       inkscape:original="M 478.50977 387.33203 C 468.23935 387.39382 459.91359 387.65961 455.89844 388.1875 L 444.83594 389.64258 L 459.69336 396.69336 C 476.88268 404.84872 492.94982 409.32567 512.62891 411.44727 C 530.87544 413.41442 545.24807 412.3641 550.92188 408.64648 C 557.01348 404.65511 562.37135 393.53737 559.55859 390.72461 C 557.63313 388.79914 509.32101 387.14666 478.50977 387.33203 z "
       d="m 478.47656,381.75977 c -10.34843,0.0623 -18.54218,0.27619 -23.30469,0.90234 l -11.0625,1.45508 a 5.5726106,5.5726106 0 0 0 -1.6621,10.55859 l 14.85742,7.05078 a 5.5726106,5.5726106 0 0 0 0,0.002 c 17.6907,8.39323 34.53826,13.08131 54.72656,15.25781 9.38336,1.01161 17.81993,1.26518 24.86523,0.75 7.04531,-0.51518 12.64032,-1.52065 17.08008,-4.42969 4.40314,-2.88505 7.49803,-7.23499 9.62305,-11.64453 1.06251,-2.20477 1.858,-4.40677 2.17578,-6.76758 0.31778,-2.36081 0.34906,-5.48297 -2.27734,-8.10937 -2.10948,-2.10949 -2.68441,-1.62346 -3.46485,-1.82032 -0.78044,-0.19685 -1.54737,-0.32843 -2.43945,-0.45898 -1.78415,-0.2611 -4.02618,-0.48633 -6.73438,-0.70313 -5.41638,-0.43359 -12.64395,-0.81764 -20.77539,-1.13476 -16.26287,-0.63425 -36.08467,-1.00159 -51.60742,-0.9082 z"
       transform="scale(0.75)" />
    <path
       id="path28"
       style="fill:#f8981d;stroke-width:1.85735"
       sodipodi:type="inkscape:offset"
       inkscape:radius="5.8481584"
       inkscape:original="M 330.24023 390.46484 L 316.95898 391.51758 C 309.65386 392.09659 299.15229 393.56353 293.62109 394.77734 C 281.08533 397.5283 283.39638 399.2312 306.18164 404.03711 C 321.59646 407.28844 339.89453 408.74631 339.89453 406.72266 C 339.89453 406.19158 337.72328 402.317 335.06836 398.11133 L 330.24023 390.46484 z "
       d="m 329.77734,384.63477 -13.28125,1.05273 c -7.64063,0.6056 -18.04752,2.04241 -24.1289,3.37695 -3.29408,0.72288 -5.58529,1.20795 -7.98438,2.46094 -1.19954,0.62649 -3.19774,1.44058 -3.99219,4.76367 -0.39722,1.66155 0.0374,3.61887 0.72071,4.79102 0.68333,1.17215 1.43197,1.79024 2.07422,2.26367 2.56897,1.89373 4.6838,2.31175 8.12109,3.24805 3.43729,0.9363 7.92295,1.95621 13.66797,3.16797 7.99192,1.68567 16.57704,2.88586 23.37891,3.42773 3.40093,0.27093 6.31439,0.3875 8.73046,0.26758 1.20804,-0.06 2.24734,-0.13299 3.56055,-0.49805 0.65661,-0.18253 1.41062,-0.39261 2.46875,-1.1582 1.05813,-0.7656 2.62891,-2.74637 2.62891,-5.07617 0,-2.05884 -0.34218,-2.07711 -0.5,-2.48047 -0.15783,-0.40336 -0.30438,-0.7188 -0.46875,-1.05664 -0.32874,-0.67568 -0.72338,-1.4079 -1.19532,-2.25 -0.94386,-1.6842 -2.18839,-3.7655 -3.56445,-5.94532 a 5.8487432,5.8487432 0 0 0 0,-0.002 l -4.82812,-7.64648 a 5.8487432,5.8487432 0 0 0 -5.40821,-2.70703 z"
       transform="scale(0.75)" />
  </g>
</svg>
